<svg xmlns="http://www.w3.org/2000/svg" aria-hidden="true" style="position:absolute;width:0;height:0;overflow:hidden">
  <defs>
    <symbol id="icon-BackArrow" viewBox="0 0 32 32">
      <path fill="none" stroke="#f8f8f8" stroke-linecap="round" stroke-linejoin="round" stroke-width="1.684" d="M16 9.263 9.263 16m0 0L16 22.737M9.263 16h13.474M16 .842C28.126.842 31.158 3.874 31.158 16S28.126 31.158 16 31.158.842 28.126.842 16 3.874.842 16 .842z" style="stroke:var(--color1, #f8f8f8)"/>
    </symbol>
    <symbol id="icon-Briefcase" viewBox="0 0 34 32">
      <path fill="none" stroke="#f8f8f8" stroke-linecap="round" stroke-linejoin="round" stroke-width="3.346" d="M10.248 8.575V5.229a3.346 3.346 0 0 1 3.346-3.346h6.693a3.346 3.346 0 0 1 3.346 3.346v3.346m-6.692 8.366v.017M1.882 18.614a33.46 33.46 0 0 0 30.118 0M1.882 11.922a3.346 3.346 0 0 1 3.346-3.346h23.425a3.346 3.346 0 0 1 3.346 3.346v15.059a3.346 3.346 0 0 1-3.346 3.346H5.228a3.346 3.346 0 0 1-3.346-3.346V11.922z" style="stroke:var(--color1, #f8f8f8)"/>
    </symbol>
    <symbol id="icon-Copyright" viewBox="0 0 32 32">
      <path fill="none" stroke="#f8f8f8" stroke-linecap="round" stroke-linejoin="round" stroke-width="4.571" d="M19.048 12.571a4.594 4.594 0 0 0-6.344.263 4.561 4.561 0 0 0 0 6.33 4.594 4.594 0 0 0 6.344.263M2.286 16A13.717 13.717 0 0 0 16 29.714 13.717 13.717 0 0 0 29.714 16 13.717 13.717 0 0 0 16 2.286 13.717 13.717 0 0 0 2.286 16z" style="stroke:var(--color1, #f8f8f8)"/>
    </symbol>
    <symbol id="icon-Corn" viewBox="0 0 32 32">
      <path fill="#f8f8f8" d="M14.42 16h-3.445a22.37 22.37 0 0 1 3.445 2.655V16zm-6.321-1.58C8.526 6.329 11.844.198 16 .198c4.203 0 7.538 6.226 7.901 14.412 2.37-1.09 5.009-1.77 7.901-1.77C22.716 16.901 25.876 31.803 16 31.803c-9.481 0-6.432-14.902-15.802-18.963 2.876 0 5.531.632 7.901 1.58zm6.321 0v-3.16h-4.361l-.332 3.16h4.693zm0-4.741v-3.16h-3.081c-.395.948-.711 2.007-.98 3.16h4.061zm0-4.741V2.252c-.869.521-1.659 1.454-2.37 2.686h2.37zM16 1.778v3.16h1.58v1.58H16v3.16h3.16v1.58H16v3.16h4.741v1.58H16v3.16h3.16v1.58h-2.797c1.88 2.291 3.034 4.741 3.303 6.684 1.564-2.639 2.592-6.937 2.655-11.804C22.226 8.096 19.366 1.775 16 1.775z" style="fill:var(--color1, #f8f8f8)"/>
    </symbol>
    <symbol id="icon-English-icon" viewBox="0 0 32 32">
      <path fill="#012169" d="M0 0h32v32H0V0z" style="fill:var(--color2, #012169)"/>
      <path fill="#fff" d="M32 0v4L20.125 16 32 27.687V32h-4.187L15.875 20.25 4.25 32H0v-4.25l11.625-11.687L0 4.625V0h3.875l12 11.75L27.5 0H32z" style="fill:var(--color3, #fff)"/>
      <path fill="#c8102e" d="m11.5 20.25.688 2.125L2.625 32H0v-.187L11.5 20.25zm7.75-.75 3.375.5L32 29.187V32L19.25 19.5zM32 0 20 12.25l-.25-2.75L29.125 0H32zM0 .063l12.063 11.813-3.688-.5L0 3.063v-3z" style="fill:var(--color4, #c8102e)"/>
      <path fill="#fff" d="M11 0v32h10V0H11zM0 11v10h32V11H0z" style="fill:var(--color3, #fff)"/>
      <path fill="#c8102e" d="M0 13v6h32v-6H0zM13 0v32h6V0h-6z" style="fill:var(--color4, #c8102e)"/>
    </symbol>
    <symbol id="icon-Envelope" viewBox="0 0 32 32">
      <path fill="none" stroke="#f8f8f8" stroke-linecap="round" stroke-linejoin="round" stroke-width="3.2" d="M1.6 11.2 16 20.8l14.4-9.6m-28.8 0L16 1.6l14.4 9.6m-28.8 0v16m28.8-16v16m0 0a3.2 3.2 0 0 1-3.2 3.2H4.8a3.2 3.2 0 0 1-3.2-3.2m28.8 0-9.6-9.6M1.6 27.2l9.6-9.6" style="stroke:var(--color1, #f8f8f8)"/>
    </symbol>
    <symbol id="icon-Facebook" viewBox="0 0 21 32">
      <path fill="none" stroke="#f8f8f8" stroke-linecap="round" stroke-linejoin="round" stroke-width="3.2" d="M1.6 12.8v6.4h4.8v11.2h6.4V19.2h4.8l1.6-6.4h-6.4V9.6A1.6 1.6 0 0 1 14.4 8h4.8V1.6h-4.8a8 8 0 0 0-8 8v3.2H1.6z" style="stroke:var(--color1, #f8f8f8)"/>
    </symbol>
    <symbol id="icon-Grape" viewBox="0 0 33 32">
      <path fill="#f8f8f8" d="M18.509 3.358a3.44 3.44 0 0 1 3.44 3.439 3.11 3.11 0 0 1-.21 1.075 6.631 6.631 0 0 0-2.176 2.187 3.323 3.323 0 0 1-1.054.179 3.432 3.432 0 0 1-3.153-2.064 3.441 3.441 0 0 1 .721-3.81 3.434 3.434 0 0 1 2.432-1.005zm6.276 1.381A6.6 6.6 0 0 0 20.016.372a6.603 6.603 0 0 0-6.211 1.799 6.623 6.623 0 0 0-1.986-.3 6.607 6.607 0 0 0-5.451 2.877 6.602 6.602 0 0 0-.698 6.123 6.572 6.572 0 0 0-3.797 5.966c0 1.165.302 2.26.831 3.209a6.543 6.543 0 0 0-2.506 5.156A6.595 6.595 0 0 0 4.271 31.3a6.596 6.596 0 0 0 2.526.503c2.091 0 3.927-1.027 5.128-2.522.988.558 2.104.85 3.239.849a6.627 6.627 0 0 0 5.999-3.783c1 .384 2.078.519 3.142.394s2.081-.508 2.963-1.115a6.603 6.603 0 0 0 2.861-5.441c0-.68-.095-1.353-.291-1.996a6.609 6.609 0 0 0 1.74-6.4 6.606 6.606 0 0 0-4.698-4.682c1.406-1.324 2.901-2.383 4.69-3.058l1.479-.558L31.933.533l-1.479.558c-2.242.847-4.071 2.154-5.673 3.65zm2.169 15.115a3.426 3.426 0 0 1-1.048 2.757 3.421 3.421 0 0 1-2.473.952 3.443 3.443 0 0 1-3.34-3.574 3.351 3.351 0 0 1 .586-1.691 6.605 6.605 0 0 0 6.273 1.557zm-9.827-1.263a3.42 3.42 0 0 1-2.628-.9 3.425 3.425 0 0 1-1.104-2.526 3.377 3.377 0 0 1 1.512-2.834 6.572 6.572 0 0 0 3.693 1.067v.093c0 .705.111 1.386.316 2.024a6.477 6.477 0 0 0-1.789 3.075zm-4.387-8.588a6.51 6.51 0 0 0-1.607 1.839 3.43 3.43 0 0 1-1.865-1.062 3.434 3.434 0 0 1-.528-3.854 3.435 3.435 0 0 1 3.405-1.881 6.6 6.6 0 0 0 .596 4.957zm-2.497 4.878a6.575 6.575 0 0 0 .828 3.497 6.48 6.48 0 0 0-1.555 1.737 3.49 3.49 0 0 1-1.046.161 3.43 3.43 0 0 1-2.339-.918 3.423 3.423 0 0 1-1.1-2.522 3.424 3.424 0 0 1 2.544-3.309 6.63 6.63 0 0 0 2.667 1.354zm3.004 5.822a6.574 6.574 0 0 0 3.872 1.054 6.593 6.593 0 0 0 1.383 2.702 3.444 3.444 0 0 1-3.337 2.509 3.425 3.425 0 0 1-2.522-1.101 3.427 3.427 0 0 1-.916-2.339c0-.523.115-1.018.322-1.459l.003-.008.006-.013a3.363 3.363 0 0 1 1.19-1.346zm-4.682 2.733v.093c0 1.315.384 2.541 1.048 3.571-.646.924-1.699 1.541-2.816 1.541a3.433 3.433 0 0 1-3.177-2.124 3.436 3.436 0 0 1-.261-1.316c0-1.179.596-2.216 1.517-2.83a6.577 6.577 0 0 0 3.69 1.065zm16.638-13.384a3.448 3.448 0 0 1 2.5.969 3.438 3.438 0 0 1 .773 3.811 3.438 3.438 0 0 1-3.273 2.098 3.44 3.44 0 0 1 0-6.878z" style="fill:var(--color1, #f8f8f8)"/>
    </symbol>
    <symbol id="icon-Leafs" viewBox="0 0 42 32">
      <path fill="none" stroke="#f8f8f8" stroke-linecap="round" stroke-linejoin="round" stroke-width="2" d="M21 31A20 20 0 0 1 1 11a20.006 20.006 0 0 1 14.142 5.857 20.002 20.002 0 0 1 5.857 14.142zm0 0a20 20 0 0 0 20-20 20 20 0 0 0-20 20zm5.98-15A19.4 19.4 0 0 0 21 1a19.397 19.397 0 0 0-5.98 15" style="stroke:var(--color1, #f8f8f8)"/>
    </symbol>
    <symbol id="icon-License" viewBox="0 0 32 32">
      <path fill="none" stroke="#f8f8f8" stroke-linecap="round" stroke-linejoin="round" stroke-width="3.16" d="M20.741 30.415H6.519a4.741 4.741 0 0 1-4.741-4.741v-1.58h15.803v3.161a3.16 3.16 0 0 0 3.161 3.161zm0 0a3.16 3.16 0 0 0 3.161-3.161V5.131a3.156 3.156 0 0 1 1.951-2.92 3.161 3.161 0 0 1 4.129 4.129 3.158 3.158 0 0 1-2.92 1.951h-3.161m3.161-6.321H9.679a4.743 4.743 0 0 0-4.741 4.741v17.383m6.321-15.803h6.321m-6.321 6.321h6.321" style="stroke:var(--color1, #f8f8f8)"/>
    </symbol>
    <symbol id="icon-Phone" viewBox="0 0 32 32">
      <path fill="none" stroke="#f8f8f8" stroke-linecap="round" stroke-linejoin="round" stroke-width="3.368" d="M5.053 1.684h6.737l3.368 8.421-4.211 2.526a18.532 18.532 0 0 0 8.421 8.421l2.526-4.211 8.421 3.368v6.737a3.37 3.37 0 0 1-3.369 3.369A26.945 26.945 0 0 1 1.683 5.052a3.37 3.37 0 0 1 3.369-3.369z" style="stroke:var(--color1, #f8f8f8)"/>
    </symbol>
    <symbol id="icon-Rape" viewBox="0 0 32 32">
      <path fill="none" stroke="#f8f8f8" stroke-linecap="round" stroke-linejoin="round" stroke-width="2.844" d="M1.778 30.222c1.778-1.404 3.228-2.809 5.547-3.129 2.007 0 3.939.762 5.404 2.133a5.693 5.693 0 0 0 5.286.658 5.685 5.685 0 0 0 3.513-4.005 4.98 4.98 0 0 0 5.841-4.584 4.984 4.984 0 0 0-.593-2.692 4.979 4.979 0 0 0 1.953-8.293 4.976 4.976 0 0 0 0-7.04 4.976 4.976 0 0 0-7.04 0 4.986 4.986 0 0 0-4.697-1.363 4.98 4.98 0 0 0-3.596 3.315A4.977 4.977 0 0 0 6.12 10.47a5.689 5.689 0 0 0-3.339 8.753c1.129 1.638 2.423 3.476 2.126 5.45-.39 2.337-1.687 3.743-3.129 5.547zm0 0L23.111 8.889" style="stroke:var(--color1, #f8f8f8)"/>
    </symbol>
    <symbol id="icon-Sunflower" viewBox="0 0 27 32">
      <path fill="#f8f8f8" d="m9.575 12.082-1.132 1.132 1.149 1.147 1.133-1.135-1.15-1.144zm1.881 1.874-1.135 1.135 1.148 1.146 1.137-1.137-1.149-1.145zm1.895 4.165-1.153-1.153 1.138-1.14 1.156 1.152-1.141 1.141zm-.014-3.75-1.151-1.146 1.154-1.153 1.148 1.146-1.151 1.153zm1.156-4.911-1.146-1.15-1.156 1.156 1.149 1.146 1.153-1.152zm1.878 1.876-1.152 1.152-1.148-1.146 1.152-1.153 1.148 1.147zm-.423 1.882 1.155 1.151 1.15-1.15-1.153-1.153-1.152 1.152zm-4.488-3.022 1.149 1.146-1.154 1.155-1.149-1.146 1.154-1.155zm2.607 4.903 1.155 1.152 1.152-1.152-1.155-1.151-1.152 1.151z" style="fill:var(--color1, #f8f8f8)"/>
      <path fill="#f8f8f8" d="M6.808 13.461a6.574 6.574 0 0 1 6.565-6.568 6.574 6.574 0 0 1 6.566 6.566 6.571 6.571 0 0 1-6.565 6.565 6.571 6.571 0 0 1-6.565-6.565zm12.099-.001c0-.408-.052-.801-.134-1.183l-.941-.946.424-.423a5.482 5.482 0 0 0-.576-.885l-.579.58-1.148-1.148.553-.553a5.626 5.626 0 0 0-.939-.521l-.344.345-.669-.669a5.534 5.534 0 0 0-1.18-.133c-.436 0-.855.064-1.261.159l-.652.652-.327-.326c-.33.147-.64.323-.932.529l.529.53-1.156 1.156-.547-.547a5.613 5.613 0 0 0-.567.892l.387.384-.846.846a5.462 5.462 0 0 0-.159 1.26c0 .175.024.343.047.511l.022.166.953.953-.563.564c.145.332.318.645.521.939l.771-.772 1.148 1.148-.798.798c.275.22.57.412.884.576l.644-.644 1.152 1.153-.061.061.066.009c.246.036.492.072.747.072.233 0 .457-.033.681-.065l.09-.012-.065-.065 1.142-1.142.659.654c.316-.161.613-.351.89-.569l-.819-.815 1.151-1.151.797.797c.204-.294.38-.605.526-.933l-.594-.594 1.011-1.011.023-.182c.021-.147.041-.294.041-.447z" style="fill:var(--color1, #f8f8f8)"/>
      <path fill="#f8f8f8" d="M24.975 11.477c.871-1.323 1.067-2.726.472-3.943-.595-1.226-1.829-1.938-3.419-2.067.01-1.582-.588-2.863-1.745-3.556-1.059-.643-2.336-.644-3.624-.065C15.881.68 14.808.014 13.593 0h-.099c-1.299 0-2.447.743-3.267 2.025-1.398-.706-2.797-.749-3.928-.039-1.172.732-1.751 2.052-1.701 3.668-1.613.138-2.859.873-3.458 2.14-.57 1.235-.341 2.638.561 3.953-1.235.992-1.855 2.265-1.668 3.603.189 1.347 1.148 2.405 2.63 3.021-.498 1.505-.326 2.914.557 3.937.895 1.032 2.275 1.401 3.85 1.11.403 1.528 1.311 2.614 2.611 2.991.309.088.619.132.929.132.625 0 1.245-.194 1.839-.531v3.8c-.778-1.903-2.642-3.259-4.821-3.259H5.494a.288.288 0 0 0-.289.289v.434c0 2.477 2.013 4.49 4.397 4.511l2.972.009a.246.246 0 0 0 .1-.021h1.841v-.007a.312.312 0 0 0 .124.028h2.137c2.787 0 5.058-2.219 5.204-4.965.002-.035-.002-.071-.014-.105s-.03-.064-.055-.09a.265.265 0 0 0-.189-.083l-2.973.009c-1.982.017-3.706 1.408-4.232 3.299v-3.897c.905.503 1.868.65 2.803.367 1.314-.394 2.215-1.507 2.59-3.066 1.553.252 2.915-.133 3.781-1.162.885-1.048 1.031-2.474.493-3.989 1.449-.642 2.377-1.711 2.539-3.05.163-1.345-.485-2.612-1.748-3.584zm-4.051 5.235c1.363 1.528 1.91 3.2 1.187 4.057-.712.846-2.435.599-4.17-.465.31 2.024-.155 3.726-1.218 4.046s-2.373-.826-3.251-2.663c-.846 1.868-2.147 3.045-3.221 2.735-1.063-.31-1.548-1.992-1.28-4.005-1.724 1.105-3.458 1.383-4.191.537s-.217-2.508 1.104-4.057c-2.054-.021-3.654-.733-3.809-1.837s1.187-2.219 3.138-2.797C3.499 11.138 2.55 9.662 3.014 8.66c.485-1.032 2.281-1.239 4.284-.599-.857-1.91-.867-3.726.093-4.325.919-.578 2.456.155 3.756 1.652.351-1.951 1.29-3.354 2.386-3.324 1.012.01 1.858 1.25 2.199 3.004 1.229-1.31 2.612-1.92 3.479-1.394.95.569.981 2.313.196 4.192 1.951-.619 3.695-.434 4.181.568.485.991-.434 2.477-2.116 3.623 1.972.547 3.334 1.652 3.2 2.756s-1.714 1.836-3.747 1.899z" style="fill:var(--color1, #f8f8f8)"/>
    </symbol>
    <symbol id="icon-Telegram" viewBox="0 0 36 32">
      <path fill="none" stroke="#f8f8f8" stroke-linecap="round" stroke-linejoin="round" stroke-width="3.556" d="M23.111 12.444 16 19.555l10.667 10.667 7.111-28.444-32 12.444 7.111 3.556 3.556 10.667 5.333-7.111" style="stroke:var(--color1, #f8f8f8)"/>
    </symbol>
    <symbol id="icon-Tractor" viewBox="0 0 39 32">
      <path fill="none" stroke="#f8f8f8" stroke-linecap="round" stroke-linejoin="round" stroke-width="3.879" d="M9.939 21.818v.019m19.394 3.86a3.882 3.882 0 0 0 3.879 3.879 3.882 3.882 0 0 0 3.879-3.879 3.882 3.882 0 0 0-3.879-3.879 3.882 3.882 0 0 0-3.879 3.879zm0 0H16.727m18.424-3.491v-8.145a1.937 1.937 0 0 0-1.939-1.939H21.576l-3.879-9.697H6.061v12.606M31.273 2.424h-1.939a1.937 1.937 0 0 0-1.939 1.939v7.758M2.182 21.818a7.755 7.755 0 0 0 7.757 7.757 7.755 7.755 0 0 0 7.757-7.757 7.755 7.755 0 0 0-7.757-7.757 7.755 7.755 0 0 0-7.757 7.757z" style="stroke:var(--color1, #f8f8f8)"/>
    </symbol>
    <symbol id="icon-Ukraine-icon" viewBox="0 0 32 32">
      <path fill="gold" d="M0 0h32v32H0V0z" style="fill:var(--color5, #ffd700)"/>
      <path fill="#0057b8" d="M0 0h32v16H0V0z" style="fill:var(--color6, #0057b8)"/>
    </symbol>
    <symbol id="icon-University" viewBox="0 0 32 32">
      <path fill="none" stroke="#f8f8f8" stroke-linecap="round" stroke-linejoin="round" stroke-width="3.16" d="M1.778 30.415h28.444M1.778 13.032h28.444M4.938 6.711 16 1.97l11.062 4.741M3.358 13.032v17.383m25.284-17.383v17.383M9.679 19.353v4.741M16 19.353v4.741m6.321-4.741v4.741" style="stroke:var(--color1, #f8f8f8)"/>
    </symbol>
    <symbol id="icon-UpArrow" viewBox="0 0 32 32">
      <path fill="none" stroke="#f8f8f8" stroke-linecap="round" stroke-linejoin="round" stroke-width="1.684" d="M22.737 16 16 9.263m0 0L9.263 16M16 9.263v13.474M31.158 16c0 12.126-3.032 15.158-15.158 15.158S.842 28.126.842 16 3.874.842 16 .842 31.158 3.874 31.158 16z" style="stroke:var(--color1, #f8f8f8)"/>
    </symbol>
    <symbol id="icon-Watermelon" viewBox="0 0 28 32">
      <path fill="none" stroke="#f8f8f8" stroke-linecap="round" stroke-linejoin="round" stroke-width="2.844" d="m13.867 1.778 12.089 21.276s-3.523 2.901-12.089 2.901-12.089-2.901-12.089-2.901L13.867 1.778z" style="stroke:var(--color1, #f8f8f8)"/>
      <path fill="#f8f8f8" d="M13.867 12.444a1.422 1.422 0 1 0 0-2.844 1.422 1.422 0 0 0 0 2.844zM16 16.711a1.422 1.422 0 1 0 0-2.845 1.422 1.422 0 0 0 0 2.845zM11.733 16.711a1.422 1.422 0 1 0 0-2.844 1.422 1.422 0 0 0 0 2.844z" style="fill:var(--color1, #f8f8f8)"/>
      <path fill="none" stroke="#f8f8f8" stroke-linecap="round" stroke-width="2.844" d="M25.956 27.321s-3.523 2.901-12.089 2.901-12.089-2.901-12.089-2.901" style="stroke:var(--color1, #f8f8f8)"/>
    </symbol>
    <symbol id="icon-WattsUp" viewBox="0 0 32 32">
      <path fill="none" stroke="#f8f8f8" stroke-linecap="round" stroke-linejoin="round" stroke-width="3.122" d="M10.927 12.741a.778.778 0 0 0 .781.781.778.778 0 0 0 .781-.781V11.18a.778.778 0 0 0-.781-.781.778.778 0 0 0-.781.781v1.561zm0 0a7.804 7.804 0 0 0 7.805 7.805m0 0h1.561a.778.778 0 0 0 .781-.781.778.778 0 0 0-.781-.781h-1.561a.778.778 0 0 0-.781.781.778.778 0 0 0 .781.781zM1.561 29.912l2.576-5.932A14.05 14.05 0 0 1 15.391 1.843a14.051 14.051 0 0 1 14.139 12.06A14.05 14.05 0 0 1 9.445 28.508l-7.883 1.405z" style="stroke:var(--color1, #f8f8f8)"/>
    </symbol>
    <symbol id="icon-Wheat" viewBox="0 0 32 32">
      <path fill="none" stroke="#f8f8f8" stroke-linecap="round" stroke-linejoin="round" stroke-width="2.844" d="m1.778 30.222 19.911-19.911m0 0h2.844a5.689 5.689 0 0 0 5.689-5.689V1.778h-2.844a5.689 5.689 0 0 0-5.689 5.689v2.844zM3.868 16.754l2.176-2.176 2.176 2.176a4.979 4.979 0 0 1 0 7.026l-2.176 2.176-2.176-2.176a4.979 4.979 0 0 1 0-7.026zm5.689-5.689 2.176-2.176 2.176 2.176a4.979 4.979 0 0 1 0 7.026l-2.176 2.176-2.176-2.176a4.979 4.979 0 0 1 0-7.026zm5.689-5.689L17.422 3.2l2.176 2.176a4.979 4.979 0 0 1 0 7.026l-2.176 2.176-2.176-2.176a4.979 4.979 0 0 1 0-7.026z" style="stroke:var(--color1, #f8f8f8)"/>
      <path fill="none" stroke="#f8f8f8" stroke-linecap="round" stroke-linejoin="round" stroke-width="2.844" d="m15.246 23.779 2.176 2.176-2.176 2.176a4.979 4.979 0 0 1-7.026 0l-2.176-2.176 2.176-2.176a4.979 4.979 0 0 1 7.026 0zm5.689-5.688 2.176 2.176-2.176 2.176a4.979 4.979 0 0 1-7.026 0l-2.176-2.176 2.176-2.176a4.979 4.979 0 0 1 7.026 0zm5.689-5.689 2.176 2.176-2.176 2.176a4.979 4.979 0 0 1-7.026 0l-2.176-2.176 2.176-2.176a4.979 4.979 0 0 1 7.026 0z" style="stroke:var(--color1, #f8f8f8)"/>
    </symbol>
  </defs>
</svg>
